<?xml version="1.0" standalone="no"?>
<!DOCTYPE svg PUBLIC "-//W3C//DTD SVG 20010904//EN"
 "http://www.w3.org/TR/2001/REC-SVG-20010904/DTD/svg10.dtd">
<svg version="1.0" xmlns="http://www.w3.org/2000/svg"
 width="512.000000pt" height="512.000000pt" viewBox="0 0 512.000000 512.000000"
 preserveAspectRatio="xMidYMid meet">
<metadata>
Created by potrace 1.14, written by Peter Selinger 2001-2017
</metadata>
<g transform="translate(0.000000,512.000000) scale(0.100000,-0.100000)"
fill="#000000" stroke="none">
<path d="M0 2560 l0 -2560 2560 0 2560 0 0 2560 0 2560 -2560 0 -2560 0 0
-2560z m2055 1625 c483 -11 1329 -54 1442 -75 70 -12 101 -30 150 -83 103
-112 106 -129 110 -759 l4 -528 -1196 0 -1196 0 3 613 c3 601 3 613 24 658 61
132 172 193 334 183 36 -2 182 -6 325 -9z m345 -2387 c0 -425 4 -777 8 -783 4
-5 38 -39 75 -75 l67 -64 70 69 70 69 0 778 0 778 260 0 260 0 0 -182 c0 -101
4 -188 8 -195 5 -8 103 -12 347 -15 302 -4 346 -6 394 -23 71 -25 125 -77 141
-135 17 -62 7 -317 -14 -387 -47 -149 -175 -223 -388 -223 l-75 0 1 -152 c1
-150 0 -154 -27 -200 -49 -84 -228 -189 -452 -266 -165 -56 -215 -62 -537 -62
-333 0 -550 12 -664 36 -116 23 -224 82 -309 168 -117 118 -155 223 -155 432
l0 62 -142 3 c-172 5 -197 15 -243 99 l-30 55 0 235 c0 226 1 237 23 278 14
27 41 54 69 73 l47 29 373 0 373 0 0 185 0 185 225 0 225 0 0 -772z"/>
<path d="M2474 3854 c-198 -60 -306 -308 -219 -501 31 -70 92 -133 162 -169
53 -27 67 -29 163 -29 94 0 111 3 161 28 67 32 142 109 171 175 30 67 36 183
12 258 -28 90 -96 172 -179 214 -58 30 -79 35 -144 37 -46 2 -96 -4 -127 -13z"/>
</g>
</svg>
